<svg width="131" height="36" viewBox="0 0 131 36" fill="none" xmlns="http://www.w3.org/2000/svg">
<g clip-path="url(#clip0_583_5540)">
<path d="M48.8667 13.709L52.0655 22.5434H50.1123L49.4651 20.5766H46.2663L45.5959 22.5434H43.7031L46.9379 13.709H48.8667ZM48.9748 19.1282L47.8965 15.887H47.8721L46.7578 19.1282H48.9748Z" fill="black"/>
<path d="M55.4558 13.709L57.4567 19.7846H57.4811L59.3738 13.709H62.0219V22.5434H60.2604V16.283H60.236L58.1387 22.5434H56.6886L54.5925 16.3442H54.5681V22.5434H52.8066V13.709H55.4547H55.4558Z" fill="black"/>
<path d="M67.7001 13.709C68.1079 13.709 68.4786 13.7462 68.8144 13.8206C69.1502 13.895 69.4372 14.0162 69.6765 14.1854C69.9159 14.3546 70.1018 14.579 70.2331 14.8598C70.3644 15.1406 70.4306 15.4862 70.4306 15.899C70.4306 16.3442 70.333 16.715 70.1366 17.0126C69.9403 17.309 69.651 17.5526 69.2675 17.7422C69.795 17.8994 70.1878 18.173 70.448 18.5654C70.7071 18.9566 70.8373 19.4294 70.8373 19.9826C70.8373 20.4278 70.7536 20.8142 70.5863 21.1394C70.419 21.4658 70.1924 21.731 69.9089 21.9374C69.6254 22.1438 69.3024 22.2962 68.9387 22.3958C68.575 22.4942 68.202 22.5446 67.8186 22.5446H63.6729V13.7102H67.6978L67.7001 13.709ZM67.4607 17.285C67.7965 17.285 68.0719 17.2022 68.2869 17.0378C68.503 16.8734 68.6099 16.6046 68.6099 16.2338C68.6099 16.0274 68.5738 15.8582 68.5018 15.7262C68.4298 15.5942 68.3345 15.491 68.2148 15.4166C68.0951 15.3422 67.9569 15.2906 67.8012 15.2618C67.6455 15.233 67.484 15.2186 67.3155 15.2186H65.554V17.285H67.4584H67.4607ZM67.5688 21.0338C67.7524 21.0338 67.9278 21.0158 68.0963 20.9786C68.2636 20.9414 68.4112 20.879 68.5402 20.7926C68.668 20.7062 68.7691 20.5886 68.8457 20.4398C68.9213 20.291 68.9596 20.1014 68.9596 19.871C68.9596 19.4174 68.8353 19.0934 68.5878 18.9002C68.3403 18.707 68.0126 18.6098 67.606 18.6098H65.5575V21.035H67.5699L67.5688 21.0338Z" fill="black"/>
<path d="M78.506 13.709V15.3422H73.9896V17.2358H78.1353V18.7454H73.9896V20.9102H78.6024V22.5434H72.1084V13.709H78.506Z" fill="black"/>
<path d="M84.4839 13.709C84.8674 13.709 85.2125 13.7726 85.5204 13.901C85.8283 14.0294 86.0909 14.2046 86.3105 14.4266C86.5301 14.6498 86.6974 14.9078 86.8136 15.2006C86.9298 15.4934 86.9879 15.809 86.9879 16.1474C86.9879 16.667 86.8821 17.117 86.6707 17.4962C86.4592 17.8754 86.1141 18.1646 85.6342 18.3626V18.3878C85.8655 18.4538 86.0572 18.5546 86.2094 18.6914C86.3604 18.827 86.4848 18.9878 86.5812 19.1738C86.6776 19.3598 86.7474 19.5638 86.7904 19.7858C86.8345 20.009 86.8647 20.231 86.8798 20.4542C86.888 20.5946 86.8961 20.759 86.9042 20.9486C86.9124 21.1382 86.9263 21.3326 86.9461 21.5306C86.9658 21.7286 86.9983 21.9158 87.0425 22.0934C87.0866 22.271 87.1517 22.421 87.24 22.5446H85.3589C85.2555 22.2638 85.1915 21.9302 85.1671 21.5426C85.1427 21.155 85.1067 20.7842 85.0591 20.429C84.9952 19.967 84.8592 19.6286 84.6513 19.4138C84.4433 19.199 84.104 19.0922 83.6334 19.0922H81.7522V22.5446H79.8711V13.7102H84.4839V13.709ZM83.8135 17.705C84.2446 17.705 84.5688 17.6054 84.7837 17.4074C84.9998 17.2094 85.1067 16.8878 85.1067 16.4426C85.1067 15.9974 84.9987 15.7022 84.7837 15.509C84.5676 15.3158 84.2446 15.2186 83.8135 15.2186H81.7534V17.705H83.8135Z" fill="black"/>
<path d="M95.8778 13.709C96.2856 13.709 96.6563 13.7462 96.9921 13.8206C97.3279 13.895 97.6149 14.0162 97.8542 14.1854C98.0936 14.3546 98.2795 14.579 98.4108 14.8598C98.5421 15.1406 98.6083 15.4862 98.6083 15.899C98.6083 16.3442 98.5107 16.715 98.3144 17.0126C98.118 17.309 97.8287 17.5526 97.4452 17.7422C97.9728 17.8994 98.3655 18.173 98.6258 18.5654C98.8849 18.9566 99.015 19.4294 99.015 19.9826C99.015 20.4278 98.9314 20.8142 98.764 21.1394C98.5967 21.4658 98.3701 21.731 98.0866 21.9374C97.8031 22.1438 97.4801 22.2962 97.1164 22.3958C96.7527 22.4942 96.3798 22.5446 95.9963 22.5446H91.8506V13.7102H95.8755L95.8778 13.709ZM95.6385 17.285C95.9743 17.285 96.2496 17.2022 96.4646 17.0378C96.6807 16.8734 96.7876 16.6046 96.7876 16.2338C96.7876 16.0274 96.7516 15.8582 96.6795 15.7262C96.6075 15.5942 96.5122 15.491 96.3925 15.4166C96.2729 15.3422 96.1346 15.2906 95.9789 15.2618C95.8232 15.233 95.6617 15.2186 95.4932 15.2186H93.7317V17.285H95.6361H95.6385ZM95.7465 21.0338C95.9301 21.0338 96.1056 21.0158 96.274 20.9786C96.4414 20.9414 96.5889 20.879 96.7179 20.7926C96.8457 20.7062 96.9468 20.5886 97.0235 20.4398C97.099 20.291 97.1373 20.1014 97.1373 19.871C97.1373 19.4174 97.013 19.0934 96.7655 18.9002C96.518 18.707 96.1904 18.6098 95.7837 18.6098H93.7352V21.035H95.7477L95.7465 21.0338Z" fill="black"/>
<path d="M100.203 16.3262C100.395 15.761 100.67 15.2678 101.029 14.8478C101.388 14.4266 101.83 14.0978 102.353 13.8578C102.876 13.619 103.465 13.499 104.12 13.499C104.775 13.499 105.374 13.619 105.893 13.8578C106.413 14.0966 106.852 14.4266 107.211 14.8478C107.57 15.269 107.846 15.761 108.037 16.3262C108.229 16.8914 108.325 17.5034 108.325 18.1634C108.325 18.8234 108.229 19.4066 108.037 19.9634C107.845 20.5202 107.57 21.005 107.211 21.4166C106.852 21.8294 106.413 22.1522 105.893 22.3874C105.374 22.6226 104.782 22.7402 104.12 22.7402C103.458 22.7402 102.876 22.6226 102.353 22.3874C101.83 22.1522 101.388 21.8282 101.029 21.4166C100.67 21.0038 100.394 20.519 100.203 19.9634C100.013 19.4078 99.915 18.8066 99.915 18.1634C99.915 17.5202 100.011 16.8914 100.203 16.3262ZM101.923 19.2458C102.007 19.5962 102.14 19.9118 102.324 20.1926C102.507 20.4734 102.747 20.6978 103.043 20.867C103.338 21.0362 103.698 21.1202 104.121 21.1202C104.544 21.1202 104.904 21.0362 105.199 20.867C105.495 20.6978 105.735 20.4734 105.919 20.1926C106.102 19.9118 106.236 19.5962 106.32 19.2458C106.403 18.8954 106.445 18.5342 106.445 18.1634C106.445 17.7926 106.403 17.4002 106.32 17.0378C106.236 16.6754 106.102 16.3514 105.919 16.067C105.735 15.7826 105.496 15.5558 105.199 15.3866C104.904 15.2174 104.544 15.1334 104.121 15.1334C103.698 15.1334 103.338 15.2186 103.043 15.3866C102.748 15.5558 102.507 15.7826 102.324 16.067C102.14 16.3514 102.007 16.6754 101.923 17.0378C101.839 17.4014 101.797 17.7758 101.797 18.1634C101.797 18.551 101.839 18.8954 101.923 19.2458Z" fill="black"/>
<path d="M109.524 16.3262C109.715 15.761 109.991 15.2678 110.35 14.8478C110.709 14.4266 111.15 14.0978 111.673 13.8578C112.196 13.619 112.785 13.499 113.44 13.499C114.096 13.499 114.694 13.619 115.213 13.8578C115.733 14.0966 116.172 14.4266 116.531 14.8478C116.89 15.269 117.167 15.761 117.357 16.3262C117.549 16.8914 117.645 17.5034 117.645 18.1634C117.645 18.8234 117.549 19.4066 117.357 19.9634C117.165 20.5202 116.89 21.005 116.531 21.4166C116.172 21.8294 115.733 22.1522 115.213 22.3874C114.694 22.6226 114.103 22.7402 113.44 22.7402C112.778 22.7402 112.196 22.6226 111.673 22.3874C111.15 22.1522 110.709 21.8282 110.35 21.4166C109.991 21.0038 109.714 20.519 109.524 19.9634C109.332 19.4066 109.235 18.8066 109.235 18.1634C109.235 17.5202 109.332 16.8914 109.524 16.3262ZM111.243 19.2458C111.327 19.5962 111.46 19.9118 111.644 20.1926C111.828 20.4734 112.067 20.6978 112.363 20.867C112.658 21.0362 113.019 21.1202 113.442 21.1202C113.864 21.1202 114.225 21.0362 114.52 20.867C114.815 20.6978 115.055 20.4734 115.239 20.1926C115.423 19.9118 115.556 19.5962 115.64 19.2458C115.724 18.8954 115.765 18.5342 115.765 18.1634C115.765 17.7926 115.724 17.4002 115.64 17.0378C115.556 16.6754 115.423 16.3514 115.239 16.067C115.055 15.7826 114.816 15.5558 114.52 15.3866C114.225 15.2174 113.864 15.1334 113.442 15.1334C113.019 15.1334 112.658 15.2186 112.363 15.3866C112.068 15.5558 111.828 15.7826 111.644 16.067C111.46 16.3514 111.327 16.6754 111.243 17.0378C111.159 17.4014 111.118 17.7758 111.118 18.1634C111.118 18.551 111.159 18.8954 111.243 19.2458Z" fill="black"/>
<path d="M120.81 13.7092V17.3716L124.153 13.7092H126.501L123.158 17.1988L126.824 22.5436H124.464L121.888 18.5716L120.81 19.6972V22.5424H118.929V13.708H120.81V13.7092Z" fill="black"/>
<path d="M34.8577 0H0V36H34.8577V0Z" fill="black"/>
<path d="M13.4245 10.9067L18.7182 25.5251H15.4869L14.4168 22.2695H9.12305L8.01341 25.5251H4.88086L10.2338 10.9067H13.4257H13.4245ZM13.6034 19.8743L11.8187 14.5103H11.7792L9.93523 19.8743H13.6023H13.6034Z" fill="white"/>
<path d="M22.4646 10.9067V16.2299H22.5041C22.848 15.6839 23.3139 15.2855 23.9019 15.0323C24.4898 14.7803 25.101 14.6531 25.7354 14.6531C26.2513 14.6531 26.759 14.7623 27.2622 14.9807C27.7641 15.1991 28.2173 15.5339 28.6204 15.9839C29.0236 16.4339 29.3501 17.0111 29.6023 17.7143C29.8532 18.4175 29.9787 19.2539 29.9787 20.2223C29.9787 21.1907 29.8532 22.0271 29.6023 22.7303C29.3513 23.4335 29.0236 24.0095 28.6204 24.4607C28.2173 24.9107 27.7641 25.2455 27.2622 25.4639C26.7602 25.6823 26.2513 25.7915 25.7354 25.7915C24.9825 25.7915 24.3085 25.6691 23.7136 25.4231C23.1187 25.1771 22.6691 24.7607 22.3658 24.1739H22.3263V25.5251H19.6504V10.9067H22.4657H22.4646ZM27.024 18.9527C26.931 18.5435 26.7858 18.1811 26.5882 17.8679C26.3896 17.5547 26.1421 17.3051 25.8446 17.1203C25.5472 16.9355 25.187 16.8443 24.764 16.8443C24.3411 16.8443 23.9971 16.9367 23.6939 17.1203C23.3895 17.3051 23.1385 17.5535 22.941 17.8679C22.7423 18.1823 22.597 18.5435 22.5052 18.9527C22.4123 19.3619 22.367 19.7915 22.367 20.2427C22.367 20.6939 22.4134 21.1031 22.5052 21.5123C22.5982 21.9215 22.7434 22.2839 22.941 22.5971C23.1397 22.9115 23.3906 23.1599 23.6939 23.3447C23.9971 23.5295 24.355 23.6207 24.764 23.6207C25.173 23.6207 25.5472 23.5283 25.8446 23.3447C26.1421 23.1599 26.3896 22.9115 26.5882 22.5971C26.7869 22.2827 26.9322 21.9215 27.024 21.5123C27.1158 21.1031 27.1622 20.6795 27.1622 20.2427C27.1622 19.8059 27.1158 19.3619 27.024 18.9527Z" fill="white"/>
<path d="M127.608 13.686H128.919V13.9788H128.433V15.336H128.096V13.9788H127.608V13.686ZM130.999 13.686V15.3348H130.705V14.3184L130.727 14.112L130.233 15.0456C130.211 15.0972 130.173 15.1236 130.117 15.1236H130.068C130.012 15.1236 129.973 15.0972 129.95 15.0456L129.454 14.112L129.478 14.3184V15.3348H129.178V13.686H129.464C129.494 13.686 129.516 13.6896 129.53 13.6968C129.544 13.704 129.56 13.7196 129.58 13.7436L130.036 14.5872C130.059 14.6376 130.077 14.6856 130.089 14.7324C130.103 14.6808 130.123 14.6316 130.146 14.5872L130.602 13.7436C130.619 13.7196 130.635 13.704 130.649 13.6968C130.663 13.6896 130.685 13.686 130.715 13.686H130.999Z" fill="black"/>
</g>
<defs>
<clipPath id="clip0_583_5540">
<rect width="131" height="36" fill="white"/>
</clipPath>
</defs>
</svg>
