<svg width="150" height="36" viewBox="0 0 150 36" fill="none" xmlns="http://www.w3.org/2000/svg">
<g clip-path="url(#clip0_583_5581)">
<path d="M48.9064 25.1729C46.802 25.1729 45.083 26.8927 45.083 28.9963C45.083 31.0998 46.7251 32.8974 48.8548 32.9227C51.0623 32.9227 52.7559 31.2029 52.7559 29.0216C52.7559 26.8919 50.9854 25.1729 48.9064 25.1729ZM48.9064 32.3066C47.135 32.3066 45.7236 30.8691 45.7236 29.0478C45.7236 27.2004 47.1612 25.789 48.9317 25.789C50.7276 25.789 52.1136 27.2519 52.139 29.0225C52.1398 30.8691 50.7546 32.3066 48.9064 32.3066ZM1.63672 34.1287H24.4247V33.9921L4.99863 27.9441L6.12772 26.4296L24.4247 32.1528V30.2203L7.28217 24.8645L8.3859 23.3508L24.4247 28.3548V26.455L9.48963 21.811L10.6187 20.2965L24.4247 24.5822V22.6578L11.7478 18.7567L12.8769 17.2431L24.4247 20.8104V18.8852L14.0314 15.6779L15.1604 14.1635L24.4247 17.0115V15.1134L16.3157 12.5983L17.4448 11.0838L24.4247 13.2397V11.3407L18.5993 9.54482L19.7284 8.03037L24.4247 9.46709V7.26046L21.0375 6.23364L24.2513 1.87109H1.63672V34.1287ZM52.2429 21.2465C51.9868 21.2465 51.8068 21.1949 51.6784 21.0665C51.5499 20.9642 51.473 20.8104 51.3961 20.6304C51.3329 20.4309 51.2985 20.2235 51.2938 20.0143V19.3728C51.2938 18.2953 51.3192 17.2938 51.3446 16.3194C51.3699 15.3695 51.3961 14.3942 51.3961 13.4197C51.3961 12.8552 51.2938 12.3422 51.0885 11.8799C50.8831 11.4176 50.6008 11.0077 50.2416 10.6739C49.8825 10.3401 49.4464 10.0832 48.9325 9.904C48.4196 9.724 47.855 9.64791 47.2389 9.64791C46.5459 9.64791 45.8783 9.75019 45.2368 9.95555C44.57 10.1609 43.877 10.5463 43.0302 11.2131V12.5475H43.3125C43.5947 12.0084 44.0308 11.5723 44.6215 11.2646C45.2067 10.9563 45.8591 10.7977 46.5205 10.8032C47.0336 10.8032 47.4705 10.8801 47.8296 11.0593C48.1888 11.2393 48.4711 11.47 48.7018 11.7523C48.9325 12.0345 49.0864 12.3937 49.1895 12.7783C49.2917 13.1636 49.3433 13.5735 49.3433 14.0105C49.3433 14.2665 49.3171 14.4719 49.2664 14.6257C49.2156 14.7795 49.0864 14.908 48.8303 15.0365C48.456 15.1823 48.0694 15.294 47.675 15.3703C47.162 15.4725 46.4436 15.601 45.5199 15.7548C44.3908 15.9348 43.5178 16.3194 42.8772 16.8839C42.2357 17.4485 41.9273 18.2437 41.9273 19.2705C41.9273 19.7582 42.0042 20.1943 42.2095 20.5796C42.4149 20.9642 42.671 21.2726 42.9795 21.5549C43.2871 21.8372 43.6471 22.0164 44.057 22.1448C44.4677 22.2733 44.8785 22.3248 45.3145 22.3248C46.1867 22.3248 46.9313 22.171 47.5212 21.8887C48.1373 21.6065 48.7272 21.1442 49.3433 20.5281C49.394 20.9642 49.574 21.3234 49.8563 21.6056C50.1639 21.8879 50.5746 22.0164 51.1392 22.0164C51.473 22.0164 51.7806 21.991 52.0629 21.9395C52.3008 21.8973 52.5332 21.8287 52.7559 21.7349V21.1704C52.679 21.1957 52.6021 21.2473 52.4998 21.2473L52.2429 21.2465ZM49.3433 19.5013C49.061 19.9889 48.6503 20.3996 48.1119 20.7588C47.5893 21.1129 46.9718 21.3006 46.3405 21.2972C45.776 21.2972 45.263 21.0926 44.8007 20.6811C44.3393 20.2712 44.1077 19.6551 44.1077 18.859C44.1077 18.3714 44.1846 17.9868 44.3638 17.6784C44.543 17.3699 44.7745 17.1138 45.0822 16.9085C45.4006 16.7003 45.7457 16.5363 46.1082 16.4208C46.4927 16.3185 46.8781 16.2155 47.2635 16.1385C47.648 16.0616 48.0334 16.0101 48.4179 15.9332C48.7713 15.8855 49.1167 15.7906 49.4447 15.6509L49.3433 19.5013ZM35.8956 29.7146H38.3845C38.3845 31.2806 37.0501 32.3328 35.4587 32.3328C33.6366 32.3328 32.2253 30.9215 32.2253 29.074C32.2253 27.2519 33.5851 25.789 35.5103 25.789C37.4608 25.789 38.333 27.3542 38.333 27.3542L38.8206 27.0204C38.4762 26.452 37.99 25.9829 37.4097 25.6591C36.8293 25.3352 36.1748 25.1677 35.5103 25.1729C33.3544 25.1729 31.5585 26.8665 31.5585 29.0225C31.5585 31.2299 33.3036 32.8974 35.4587 32.9235C37.3324 32.9235 39.026 31.6145 39.026 29.6385V29.1509H35.8948V29.7146H35.8956ZM40.6435 12.7775C40.6435 12.5214 40.6689 12.2645 40.7458 12.0075C39.6683 12.1098 38.5899 12.1875 37.487 12.2129C36.3841 12.2383 35.2804 12.2636 34.1505 12.2636V7.41428C34.1505 6.87509 34.1505 6.28518 34.1758 5.69446C34.5865 5.69446 35.0995 5.69446 35.7156 5.71982C36.3309 5.71982 36.9985 5.746 37.6662 5.77137C38.333 5.79673 39.0006 5.82291 39.6421 5.87364C40.2835 5.899 40.8481 5.95055 41.3104 6.00209C41.2596 5.746 41.2335 5.48909 41.2335 5.23218C41.2335 4.97528 41.2596 4.71918 41.3104 4.46228C40.3866 4.48764 39.5398 4.513 38.7445 4.53918C37.9485 4.56618 37.1785 4.56618 36.4095 4.56618C35.6404 4.56618 34.895 4.56618 34.1251 4.54082C33.3805 4.51464 32.6106 4.48928 31.8407 4.46391C31.8923 5.593 31.9176 6.69673 31.9692 7.77428C32.0207 8.878 32.0461 9.98091 31.9945 11.1108V15.5503C31.9945 16.6794 31.9945 17.7831 31.9438 18.886C31.9151 19.9643 31.8723 21.0422 31.8154 22.1195C32.2338 22.0881 32.6533 22.071 33.0729 22.0679C33.5098 22.0679 33.9451 22.0933 34.3305 22.1195C34.2797 21.0673 34.2535 19.9897 34.202 18.886C34.1715 17.7743 34.1544 16.6623 34.1505 15.5503V13.369H35.8703C36.461 13.369 37.0509 13.369 37.6408 13.3944C38.2054 13.3944 38.7699 13.4197 39.3091 13.4451C39.789 13.4633 40.2682 13.4974 40.7458 13.5474C40.6741 13.2972 40.6396 13.0377 40.6435 12.7775ZM44.0308 27.2765C44.0308 26.1989 43.2355 25.3259 42.0295 25.3259H40.3359V32.7681H40.9774V28.9439L44.3646 32.7681H45.1861C45.1861 32.7681 42.4403 29.6885 42.0295 29.2524C43.2355 29.2524 44.0308 28.4064 44.0308 27.2765ZM40.9774 28.714V25.8913H41.9526C42.7225 25.8913 43.3894 26.2758 43.3894 27.2765C43.3894 28.021 42.9533 28.714 41.978 28.714H40.9774ZM126.355 9.62091C125.098 9.62091 123.969 10.5446 122.968 12.3929L122.917 12.3675V11.3407C122.917 10.9815 122.943 10.4939 123.02 9.87782L122.481 9.95473C122.301 9.98009 122.147 9.98009 121.993 9.98009C121.814 9.98009 121.634 9.98009 121.455 9.95473C121.275 9.92949 121.095 9.90386 120.915 9.87782C120.942 11.0069 120.992 12.0075 120.992 12.8797C121.013 13.6495 121.022 14.4195 121.018 15.1895V16.0109C121.018 17.4476 120.992 18.6798 120.992 19.6805C120.992 20.6811 120.967 21.451 120.915 22.0409C121.249 22.0155 121.608 21.9902 121.993 21.9902C122.327 21.9902 122.686 22.0155 123.02 22.0409C122.994 21.6817 122.943 21.1941 122.943 20.578V15.1379C122.943 14.6503 122.994 14.188 123.123 13.7519C123.251 13.3158 123.405 12.9313 123.636 12.6228C123.867 12.3152 124.123 12.0583 124.456 11.8783C124.789 11.6983 125.149 11.596 125.56 11.596C125.817 11.596 126.048 11.6475 126.305 11.7245C126.535 11.8014 126.715 11.9036 126.792 11.9552L126.972 11.8267C126.972 11.4929 126.972 11.1084 126.997 10.6976C127.022 10.2869 127.074 9.97928 127.151 9.77391C126.997 9.697 126.843 9.67164 126.741 9.64546C126.638 9.62091 126.509 9.62091 126.355 9.62091ZM58.5045 30.5615C58.5045 31.639 57.6576 32.2813 56.5539 32.2813C55.2964 32.2813 54.5011 31.6398 54.5011 30.5361V25.2752H53.8596V30.5361C53.8596 31.999 54.9634 32.8974 56.477 32.8974C58.0422 32.8974 59.1459 31.9736 59.1459 30.5623V25.3014H58.5045V30.5615ZM102.951 9.90318C102.669 10.6985 102.361 11.5715 102.028 12.4952C101.694 13.4189 101.386 14.3173 101.052 15.1895C100.757 16.0325 100.449 16.8709 100.129 17.7045C99.8927 18.3797 99.6359 19.0474 99.3587 19.7066C98.7427 18.013 98.1519 16.3447 97.5882 14.7534C97.0263 13.1576 96.5298 11.5395 96.0999 9.90318C95.9796 9.92574 95.8598 9.95138 95.7407 9.98009C95.6377 10.0063 95.5092 10.0063 95.3816 10.0063C95.1762 10.0063 94.9201 9.95473 94.6117 9.87782C94.3809 10.6731 94.0987 11.5461 93.7902 12.4952C93.4826 13.4443 93.1749 14.3688 92.8665 15.2664C92.558 16.1639 92.2504 17.0115 91.9681 17.8068C91.7395 18.4473 91.4912 19.0806 91.2236 19.7058C90.5806 18.0625 89.9814 16.4024 89.4268 14.7272C88.8928 13.1336 88.405 11.5249 87.9639 9.90318C87.7332 9.92855 87.5278 9.95391 87.3478 9.98009C87.1687 10.0063 86.9633 10.0063 86.7833 10.0063C86.5779 10.0063 86.3987 10.0063 86.1934 9.98009C86.0134 9.95473 85.808 9.92937 85.6035 9.90318C86.0134 10.9292 86.4503 12.0075 86.8864 13.162C87.3233 14.3165 87.7332 15.4464 88.1439 16.5493C88.5285 17.653 88.9138 18.679 89.2477 19.6543C89.5815 20.6295 89.8629 21.4256 90.0176 22.0409C90.2229 22.0155 90.4537 21.9902 90.7359 21.9902C91.0182 21.9902 91.2489 22.0155 91.4543 22.0409C91.6858 21.3225 91.9673 20.5265 92.2757 19.6289C92.5842 18.7314 92.891 17.8584 93.1995 16.9862C93.5079 16.114 93.8156 15.3179 94.0978 14.5488C94.3801 13.8043 94.637 13.1628 94.8424 12.6498C95.5354 14.3435 96.1253 15.9602 96.6645 17.5C97.2037 19.0398 97.6905 20.5796 98.1274 22.0933C98.2043 22.0679 98.6666 22.0425 98.7942 22.0425C99.0511 22.0425 99.2818 22.0679 99.4618 22.0933C100.18 20.0658 100.975 18.0645 101.823 16.0371C102.685 13.9733 103.592 11.9285 104.543 9.904C104.26 9.98091 104.004 10.0325 103.773 10.0325C103.567 10.0316 103.284 9.98009 102.951 9.90318ZM115.551 11.0838C114.969 10.5795 114.287 10.2035 113.549 9.98009C112.826 9.75687 112.073 9.64459 111.316 9.64709C110.598 9.64709 109.854 9.74937 109.109 9.98009C108.372 10.2035 107.69 10.5796 107.108 11.0838C106.486 11.6257 105.995 12.3012 105.671 13.0597C105.312 13.8804 105.132 14.8556 105.132 16.0109C105.132 17.1654 105.311 18.1415 105.671 18.9621C105.995 19.7205 106.486 20.396 107.108 20.938C107.692 21.427 108.375 21.7857 109.109 21.9902C109.854 22.1955 110.572 22.2978 111.316 22.2978C112.06 22.2978 112.805 22.1955 113.549 21.9902C114.294 21.7848 114.961 21.451 115.551 20.938C116.173 20.396 116.664 19.7205 116.988 18.9621C117.347 18.1668 117.527 17.1654 117.527 16.0109C117.527 14.8556 117.348 13.8804 116.988 13.0597C116.665 12.301 116.173 11.6255 115.551 11.0838ZM115.115 18.0899C114.987 18.7567 114.781 19.3475 114.474 19.8605C114.172 20.3675 113.749 20.791 113.242 21.0926C112.729 21.4003 112.087 21.5541 111.343 21.5541C110.598 21.5541 109.957 21.4003 109.444 21.0926C108.931 20.785 108.52 20.3743 108.212 19.8605C107.905 19.3475 107.699 18.7567 107.571 18.0899C107.442 17.4231 107.391 16.7301 107.391 16.0109C107.391 15.2917 107.442 14.5995 107.571 13.9319C107.699 13.2643 107.905 12.6744 108.212 12.1605C108.52 11.6475 108.931 11.2368 109.444 10.9292C109.957 10.6215 110.599 10.4677 111.343 10.4677C112.086 10.4677 112.729 10.6215 113.242 10.9292C113.748 11.2307 114.172 11.654 114.474 12.1605C114.781 12.6735 114.987 13.2643 115.115 13.9319C115.269 14.5987 115.321 15.2917 115.321 16.0109C115.321 16.7301 115.244 17.4223 115.115 18.0899ZM148.04 16.3701C148.065 15.6002 148.091 14.8556 148.091 14.1119C148.091 13.2397 147.963 12.4952 147.706 11.9306C147.45 11.3661 147.116 10.9046 146.731 10.5708C146.342 10.2461 145.887 10.0097 145.397 9.87782C144.92 9.74666 144.429 9.67764 143.934 9.67246C143.01 9.67246 142.214 9.85164 141.547 10.2624C140.88 10.6477 140.316 11.2123 139.828 11.956H139.776V10.0063C139.776 9.44173 139.802 8.82564 139.802 8.15882C139.802 7.492 139.802 6.84973 139.828 6.18291C139.828 5.54146 139.853 4.9 139.879 4.30928C139.905 3.71937 139.93 3.20555 139.956 2.76946C139.468 2.84637 139.084 2.89791 138.802 2.89791C138.519 2.89791 138.135 2.84718 137.646 2.76946C137.672 3.18018 137.698 3.69318 137.723 4.30928C137.723 4.9 137.749 5.54146 137.774 6.20828C137.774 6.87509 137.799 7.54273 137.799 8.23573C137.799 8.90255 137.799 9.54482 137.876 10.1347V14.728C137.876 15.3187 137.851 15.934 137.851 16.627C137.851 17.32 137.851 17.9876 137.826 18.6545C137.826 19.3213 137.799 19.9635 137.774 20.5535C137.754 21.0498 137.729 21.546 137.697 22.0417C138.082 22.0164 138.467 21.991 138.852 21.991C139.237 21.991 139.621 22.0164 140.007 22.0417C139.975 21.5544 139.95 21.0667 139.93 20.5788C139.93 19.9889 139.905 19.3728 139.879 18.7314C139.879 18.0899 139.853 17.4738 139.853 16.8324C139.828 16.1909 139.828 15.6525 139.828 15.1641C139.828 13.8296 140.084 12.8028 140.649 12.0591C141.187 11.3145 142.06 10.9554 143.266 10.9554C144.139 10.9554 144.832 11.263 145.319 11.9298C145.807 12.5713 146.063 13.5465 146.063 14.8295V16.3946C146.063 17.3953 146.063 18.3452 146.012 19.2943C145.987 20.2442 145.935 21.1417 145.91 22.0401C146.244 22.0147 146.603 21.9894 146.962 21.9894C147.321 21.9894 147.707 22.0147 148.04 22.0401C148.04 21.8094 148.014 21.5525 148.014 21.2955C147.989 21.0395 147.989 20.7825 147.989 20.5003V18.8345C147.989 17.9615 148.014 17.14 148.04 16.3701ZM134.028 21.5795C133.515 21.5795 133.13 21.4772 132.848 21.2456C132.565 21.0403 132.36 20.7326 132.232 20.3735C132.097 19.9759 132.019 19.561 132.001 19.1413C131.976 18.6798 131.976 18.2175 131.976 17.7299V15.8047C132.001 15.0864 132.001 14.4187 132.026 13.7519C132.026 13.1105 132.052 12.5459 132.078 12.0583C132.103 11.5706 132.103 11.3137 132.129 11.2368H134.156C134.387 11.2368 134.617 11.2368 134.849 11.2622C134.824 11.2115 134.824 11.1337 134.824 11.0061V10.4677C134.824 10.3393 134.824 10.237 134.849 10.1855C134.259 10.2108 133.695 10.2362 133.181 10.2362H132.129L132.205 8.36255C132.232 7.74646 132.257 7.105 132.308 6.46355V6.439H132.179L130.05 7.33737C130.075 7.87655 130.1 8.41491 130.1 8.92873C130.126 9.44173 130.126 9.87864 130.151 10.2116C129.792 10.2116 129.227 10.1863 128.457 10.1347C128.483 10.2116 128.508 10.3147 128.508 10.3908V10.93C128.483 11.0069 128.483 11.11 128.457 11.2123C128.637 11.2123 128.791 11.1869 128.945 11.1869H130.203C130.203 12.136 130.203 13.009 130.177 13.7789C130.177 14.5488 130.151 15.2672 130.126 15.9086C130.126 16.5501 130.1 17.14 130.075 17.6792C130.05 18.2184 130.05 18.706 130.05 19.1675C130.05 20.1935 130.306 20.9634 130.819 21.5025C131.332 22.0417 132.128 22.2986 133.206 22.2986C133.514 22.2986 133.848 22.2725 134.207 22.1964C134.541 22.1195 134.874 22.0679 135.157 22.0164V21.4011C134.965 21.4637 134.767 21.5067 134.567 21.5295C134.336 21.5541 134.157 21.5795 134.028 21.5795ZM82.8323 15.7286C82.3692 15.4882 81.8777 15.307 81.3694 15.1895C80.8302 15.061 80.3426 14.9334 79.9065 14.7534C79.4905 14.6096 79.113 14.3726 78.8027 14.0604C78.5205 13.7781 78.3666 13.342 78.3666 12.8028C78.3666 12.4183 78.4436 12.1098 78.572 11.8284C78.7005 11.5461 78.8796 11.3407 79.085 11.1607C79.2896 10.9815 79.5211 10.8531 79.778 10.7762C80.0341 10.6993 80.291 10.6477 80.5479 10.6477C81.1378 10.6477 81.6255 10.8015 82.0108 11.1354C82.3954 11.4692 82.6777 11.8284 82.8061 12.2391H83.1137C83.1391 12.0337 83.216 11.7515 83.3445 11.3669C83.4729 10.9824 83.6006 10.6739 83.7298 10.4178C83.3139 10.278 82.9029 10.1239 82.4977 9.95555C82.0616 9.77637 81.5486 9.69946 80.9071 9.69946C80.2141 9.69946 79.6242 9.77637 79.085 9.98173C78.5879 10.1475 78.1326 10.4191 77.7506 10.7778C77.3893 11.1126 77.1087 11.5249 76.9299 11.9838C76.7403 12.4749 76.6446 12.9972 76.6477 13.5236C76.6477 14.242 76.7761 14.8065 77.0837 15.2173C77.366 15.628 77.7506 15.9356 78.1875 16.1925C78.6493 16.4418 79.1408 16.6315 79.6504 16.7571C80.1896 16.8855 80.6764 17.0394 81.1133 17.2185C81.5502 17.3977 81.9086 17.6293 82.217 17.9115C82.4993 18.1938 82.6539 18.5792 82.6539 19.1175C82.6539 19.5029 82.577 19.8359 82.4486 20.119C82.3201 20.4013 82.1409 20.6574 81.9094 20.8374C81.6716 21.0278 81.4025 21.1753 81.1141 21.2735C80.8176 21.3783 80.5049 21.4304 80.1904 21.4273C79.8312 21.4273 79.4974 21.3757 79.1897 21.2473C78.8821 21.145 78.599 20.9904 78.3429 20.8112C78.0868 20.632 77.8807 20.452 77.7015 20.2466C77.5452 20.0687 77.3912 19.889 77.2392 19.7075H76.9316C76.9316 19.9635 76.8808 20.272 76.7777 20.6565C76.6755 21.0419 76.5732 21.3234 76.4701 21.5549C76.8293 21.7595 77.2662 21.9395 77.8046 22.0933C78.3437 22.2471 78.9852 22.3248 79.7805 22.3248C80.4988 22.3248 81.1403 22.2225 81.7057 22.0172C82.2415 21.8202 82.7307 21.5144 83.1424 21.1188C83.5531 20.7335 83.8607 20.3235 84.0661 19.8359C84.266 19.3739 84.3706 18.8764 84.3737 18.373C84.3737 17.6546 84.2453 17.0901 83.9376 16.6794C83.6529 16.2678 83.2684 15.9602 82.8323 15.7286ZM62.174 25.3005H60.4804V32.7427H61.1218V29.2524H62.0717C63.4316 29.2524 64.1761 28.3802 64.1761 27.2511C64.1761 26.1735 63.38 25.3005 62.174 25.3005ZM62.1225 28.6878H61.1218V25.8913H62.0971C62.867 25.8913 63.5338 26.2758 63.5338 27.2765C63.5338 28.021 63.0977 28.6878 62.1225 28.6878ZM61.5326 11.9568L61.7117 11.8284C61.7117 11.4945 61.7117 11.11 61.7379 10.6993C61.7633 10.2885 61.8148 9.98091 61.8917 9.77555C61.7379 9.69864 61.5841 9.67328 61.481 9.64709C61.3787 9.62091 61.2503 9.62091 61.0965 9.62091C59.8389 9.62091 58.7098 10.5446 57.7092 12.3929L57.6576 12.3675V11.3407C57.6576 10.9815 57.683 10.4939 57.7599 9.87782L57.2207 9.95473C57.0407 9.98091 56.8869 9.98009 56.7331 9.98009C56.5531 9.98009 56.3739 9.98009 56.1939 9.95473C56.0141 9.92949 55.8344 9.90386 55.6547 9.87782C55.7055 11.0069 55.7316 12.0075 55.7316 12.8797V19.6805C55.7316 20.6811 55.7063 21.451 55.6547 22.0409C55.9886 22.0155 56.3477 21.9902 56.7323 21.9902C57.0661 21.9902 57.4253 22.0155 57.7583 22.0409C57.7076 21.6817 57.6814 21.1941 57.6814 20.578V15.1379C57.6814 14.6503 57.7329 14.188 57.8614 13.7519C57.9898 13.3158 58.1436 12.9313 58.3744 12.6228C58.6051 12.3144 58.862 12.0583 59.195 11.8783C59.528 11.6983 59.888 11.596 60.2987 11.596C60.5556 11.596 60.7864 11.6475 61.0433 11.7245C61.2756 11.8022 61.4556 11.9053 61.5326 11.9568ZM72.7212 10.5962C72.3318 10.2713 71.8765 10.0348 71.3867 9.90318C70.91 9.77203 70.4183 9.703 69.9238 9.69782C69.0001 9.69782 68.204 9.87782 67.5372 10.2877C66.8704 10.6731 66.305 11.2376 65.8174 11.9814H65.7658C65.7658 11.2884 65.792 10.6207 65.8427 9.92855C65.6374 9.95391 65.432 9.97928 65.2782 10.0055C65.1244 10.0308 64.9706 10.0308 64.8421 10.0308C64.5598 10.0308 64.1753 9.97928 63.6876 9.90237C63.7646 10.6207 63.8161 11.4168 63.8415 12.2628C63.8415 13.1096 63.8668 13.9057 63.8668 14.6756V17.3699C63.8668 18.1398 63.8668 18.9359 63.8415 19.7819C63.8211 20.5451 63.7698 21.3072 63.6876 22.0663C64.0722 22.0409 64.4576 22.0155 64.8421 22.0155C65.2275 22.0155 65.612 22.0409 65.9974 22.0663C65.9143 21.3073 65.863 20.5452 65.8436 19.7819C65.8436 18.9351 65.8182 18.1398 65.8182 17.3699V15.1886C65.8182 13.8542 66.0743 12.8282 66.6396 12.0836C67.178 11.3391 68.051 10.9799 69.257 10.9799C70.1292 10.9799 70.823 11.2875 71.3098 11.9552C71.7975 12.622 72.0282 13.5719 72.0282 14.8548V16.4208C72.0282 17.4215 72.0282 18.3705 71.9775 19.3205C71.9513 20.2704 71.9006 21.1679 71.8752 22.0663C72.209 22.0409 72.5682 22.0155 72.9274 22.0155C73.2866 22.0155 73.6719 22.0409 74.0049 22.0663C74.0049 21.8355 73.9796 21.5786 73.9796 21.3217V18.8582C73.9796 17.986 74.0049 17.1645 74.0303 16.3946C74.0565 15.6247 74.0818 14.881 74.0818 14.1365C74.0818 13.2643 73.9534 12.5197 73.6965 11.9552C73.4396 11.3915 73.1066 10.93 72.7212 10.5962Z" fill="black"/>
</g>
<defs>
<clipPath id="clip0_583_5581">
<rect width="149.727" height="36" fill="white"/>
</clipPath>
</defs>
</svg>
